<?xml version="1.0" encoding="UTF-8"?>
<svg width="140px" height="140px" viewBox="0 0 140 140" version="1.1" xmlns="http://www.w3.org/2000/svg" xmlns:xlink="http://www.w3.org/1999/xlink">
    <title>flame</title>
    <g id="flame" stroke="none" stroke-width="1" fill="none" fill-rule="evenodd">
        <g id="g5592" transform="translate(69.478828, 74.588835) scale(-1, 1) rotate(-180.000000) translate(-69.478828, -74.588835) translate(37.095792, 24.978666)" fill="#000000" fill-rule="nonzero">
            <path d="M20.7420725,2.82434037 C2.35140634,12.6630068 -5.14726014,35.2230062 3.72073964,54.1203391 C5.15407294,46.6576726 10.0194061,40.0083394 17.2887393,36.5576729 C7.80740621,58.7336723 14.7887394,84.803005 34.3554055,99.220338 C30.5060723,86.0403383 36.4180722,73.9803386 49.0994052,64.8750055 C63.6047381,54.4616724 64.2180715,33.2123396 51.4167384,21.7256732 C56.5020717,22.9096732 61.2327382,25.7096731 64.7660714,29.9963397 C62.5860715,18.76434 55.543405,8.60167356 44.7447386,2.82434037 C44.7447386,2.82406378 39.0476416,0 32.3830357,0 C27.2479625,0 20.7420725,2.82406378 20.7420725,2.82434037 Z" id="path5594"></path>
        </g>
    </g>
</svg>