<?xml version="1.0" encoding="UTF-8"?>
<svg width="140px" height="76px" viewBox="0 0 140 76" version="1.1" xmlns="http://www.w3.org/2000/svg" xmlns:xlink="http://www.w3.org/1999/xlink">
    <title>logo-circles</title>
    <g id="logo-circles" stroke="none" stroke-width="1" fill="none" fill-rule="evenodd">
        <g id="Group-3" transform="translate(4.000000, 8.000000)" fill-rule="nonzero">
            <g id="g5564" transform="translate(43.500000, 39.500000) scale(-1, 1) rotate(-180.000000) translate(-43.500000, -39.500000) translate(23.000000, 19.000000)" fill="#FCB030">
                <path d="M41,20.5010169 C41,9.18071333 31.8172528,0 20.4969493,0 C9.17461184,0 0,9.18071333 0,20.5010169 C0,31.8233543 9.17461184,41 20.4969493,41 C31.8172528,41 41,31.8233543 41,20.5010169 M20.4969493,37.5831638 C11.0640409,37.5831638 3.41683615,29.9339253 3.41683615,20.5010169 C3.41683615,11.0681085 11.0640409,3.41886998 20.4969493,3.41886998 C29.9339253,3.41886998 37.5831638,11.0681085 37.5831638,20.5010169 C37.5831638,29.9339253 29.9339253,37.5831638 20.4969493,37.5831638" id="path5566"></path>
            </g>
            <g id="g5568" transform="translate(87.500000, 39.500000) scale(-1, 1) rotate(-180.000000) translate(-87.500000, -39.500000) translate(67.000000, 19.000000)" fill="#00A652">
                <path d="M41,20.5010169 C41,9.18071333 31.8197421,0 20.5,0 C9.17822421,0 0,9.18071333 0,20.5010169 C0,31.8233543 9.17822421,41 20.5,41 C31.8197421,41 41,31.8233543 41,20.5010169 M20.5,37.5831638 C11.0634921,37.5831638 3.4187004,29.9339253 3.4187004,20.5010169 C3.4187004,11.0681085 11.0634921,3.41886998 20.5,3.41886998 C29.9344742,3.41886998 37.5833333,11.0681085 37.5833333,20.5010169 C37.5833333,29.9339253 29.9344742,37.5831638 20.5,37.5831638" id="path5570"></path>
            </g>
            <g id="g5572" transform="translate(20.500000, 20.500000) scale(-1, 1) rotate(-180.000000) translate(-20.500000, -20.500000) " fill="#0082C7">
                <path d="M20.503051,41 C9.17755618,41 7.0492821e-13,31.8260568 7.0492821e-13,20.5020341 C7.0492821e-13,9.18004564 9.17755618,0 20.503051,0 C21.1010567,0 21.6888922,0.0345802739 22.2767277,0.083399484 C22.236047,0.618376662 22.2075706,1.16149038 22.2075706,1.70867236 C22.2075706,2.32094662 22.2421491,2.91491367 22.2909659,3.50888073 C21.7010964,3.45192499 21.1071588,3.42141298 20.503051,3.42141298 C11.0651387,3.42141298 3.41514114,11.0656876 3.41514114,20.5020341 C3.41514114,29.9404148 11.0651387,37.5907918 20.503051,37.5907918 C29.9368954,37.5907918 37.5868929,29.9404148 37.5868929,20.5020341 C37.5868929,12.9248859 32.6523292,6.50515975 25.8179789,4.26761262 C25.6939029,3.43158365 25.6247457,2.57521334 25.6247457,1.70867236 C25.6247457,1.35269895 25.638984,1.00893034 25.6593243,0.657025203 C34.4849928,2.94949395 41,10.9680492 41,20.5020341 C41,31.8260568 31.8244778,41 20.503051,41" id="path5574"></path>
            </g>
            <g id="g5576" transform="translate(110.500000, 20.500000) scale(-1, 1) rotate(-180.000000) translate(-110.500000, -20.500000) translate(90.000000, 0.000000)" fill="#E8384F">
                <path d="M20.4643443,41 C9.67390548,41 0.833325051,32.693422 7.0492821e-13,22.1332473 C1.15728271,22.0335847 2.29011579,21.8403611 3.38627441,21.5515428 C3.93027879,30.4967755 11.3690802,37.5870622 20.4643443,37.5870622 C29.9202405,37.5870622 37.5811261,29.9374442 37.5811261,20.5040679 C37.5811261,11.0645897 29.9202405,3.42107352 20.4643443,3.42107352 C11.8886349,3.42107352 4.77786612,9.72422859 3.54519704,17.9433476 C2.4164389,18.3114892 1.23063162,18.5636968 0.0122248174,18.6938684 C0.927048651,8.22318682 9.73502957,0 20.4643443,0 C31.8048999,0 41,9.17913483 41,20.5040679 C41,31.8228991 31.8048999,41 20.4643443,41" id="path5578"></path>
            </g>
            <g id="g5580" transform="translate(65.500000, 20.000000) scale(-1, 1) rotate(-180.000000) translate(-65.500000, -20.000000) translate(45.000000, 0.000000)" fill="#000000">
                <path d="M20.4663851,40 C9.6729441,40 0.831204969,31.7539703 0,21.2936728 C1.16124224,21.1908243 2.2898882,20.9952105 3.39001242,20.7169145 C3.93396273,29.5860852 11.3679503,36.6160827 20.4663851,36.6160827 C29.9172671,36.6160827 37.5773913,29.03151 37.5773913,19.6783464 C37.5773913,12.1623393 32.6349814,5.79783211 25.7938385,3.57953113 C25.6716025,2.74665994 25.6002981,1.90168893 25.6002981,1.04260146 C25.6002981,0.691706579 25.6104845,0.348878246 25.6349317,0 C34.470559,2.27275019 41,10.2223343 41,19.6783464 C41,30.9009327 31.8078509,40 20.4663851,40" id="path5582"></path>
            </g>
            <g id="g5584" transform="translate(56.000000, 31.500000) scale(-1, 1) rotate(-180.000000) translate(-56.000000, -31.500000) translate(45.000000, 22.000000)" fill="#000000">
                <path d="M21.9173917,1.73685929 C21.9173917,2.35923387 21.9476143,2.96299924 22,3.56676461 C21.4136826,3.5088693 20.8233355,3.47785396 20.224929,3.47785396 C11.7384376,3.47785396 4.71270263,9.88562412 3.48566719,18.2390902 C2.36944775,18.6154097 1.20487224,18.8697356 0,19 C0.904661599,8.35966917 9.61278505,0 20.224929,0 C20.817291,0 21.4036084,0.0351507237 21.9818665,0.0847752748 C21.9375401,0.628577647 21.9173917,1.18065078 21.9173917,1.73685929" id="path5586"></path>
            </g>
        </g>
    </g>
</svg>