<?xml version="1.0" encoding="UTF-8"?>
<svg width="81px" height="60px" viewBox="0 0 80 80" version="1.1" xmlns="http://www.w3.org/2000/svg" xmlns:xlink="http://www.w3.org/1999/xlink">
    <title>paralympique</title>
    <path d="M36.459974,0.480040091 C30.6340539,-0.866813469 22.6787716,0.616999182 15.16289,4.97561525 C3.40399581,11.7949475 -2.82590658,23.0678577 1.24747065,30.1549556 C3.85005405,34.6834331 10.030424,36.4063891 17.2206166,35.2810241 C13.9323018,34.5207941 11.321463,32.8582927 9.8517344,30.3015446 C5.77862347,23.2147142 12.0090585,11.941269 23.7679526,5.12220428 C28.012563,2.66015062 32.3975152,1.11615087 36.459974,0.480040091" id="Path" fill="#F0282D"></path>
    <path d="M36.5619682,28.440827 C38.3134459,34.1824089 43.5700092,40.3610829 51.0861572,44.7196989 C62.8450513,51.5390312 75.6790124,51.3218226 79.7523897,44.2355271 C82.355772,39.7073172 80.7507612,33.4695261 76.1855215,27.7771639 C77.1737736,31.0179049 77.0459479,34.1200818 75.5764856,36.6768298 C71.5033747,43.7644628 58.6686147,43.9808688 46.9099868,37.1615366 C42.6651102,34.6992154 39.1416495,31.6569581 36.5619682,28.440827" id="Path" fill="#00A651"></path>
    <path d="M28.5888436,14.5306518 C24.5144011,18.9253802 21.8156822,26.5873318 21.8156822,35.3050989 C21.8156822,48.9437634 28.4200072,60 36.5667617,60 C41.7721948,60 46.3480866,55.4854325 48.9727732,48.6682402 C46.6729768,51.1484838 43.9348449,52.5881592 40.995654,52.5881592 C32.8483669,52.5881592 26.2440419,41.5321901 26.2440419,27.8932581 C26.2440419,22.9694183 27.1052672,18.3826263 28.5888436,14.5306518" id="Path" fill="#0078D0"></path>
</svg>