<?xml version="1.0" encoding="UTF-8"?>
<svg width="140px" height="140px" viewBox="0 0 140 140" version="1.1" xmlns="http://www.w3.org/2000/svg" xmlns:xlink="http://www.w3.org/1999/xlink">
    <title>sun</title>
    <g id="sun" stroke="none" stroke-width="1" fill="none" fill-rule="evenodd">
        <circle id="Oval" stroke="#000000" stroke-width="4" cx="69.7173913" cy="70.2826087" r="32"></circle>
        <g id="Group" transform="translate(9.000000, 9.000000)">
            <path d="M62,34 C46.5609849,34 34,46.5606852 34,62.0006681 C34,77.4406509 46.5609849,90 62,90 C77.4390151,90 90,77.4393148 90,62.0006681 C90,46.5620213 77.4390151,34 62,34 Z" id="Path"></path>
            <path d="M66,11.1277827 L66,2.87359027 C66,1.2864568 64.4331104,0 62.5,0 C60.5668896,0 59,1.2864568 59,2.87359027 L59,11.1264097 C59,12.7135432 60.5668896,14 62.5,14 C64.4331104,14 66,12.7149162 66,11.1277827 Z" id="Path" fill="#000000" fill-rule="nonzero"></path>
            <path d="M59,110.873308 L59,119.126692 C59,120.713669 60.5668896,122 62.5,122 C64.4331104,122 66,120.713669 66,119.126692 L66,110.873308 C66,109.286331 64.4331104,108 62.5,108 C60.5668896,108 59,109.286331 59,110.873308 Z" id="Path" fill="#000000" fill-rule="nonzero"></path>
            <path d="M119.126692,59 L110.873308,59 C109.286331,59 108,60.5668896 108,62.5 C108,64.4331104 109.286331,66 110.873308,66 L119.126692,66 C120.713669,66 122,64.4331104 122,62.5 C122,60.5668896 120.713669,59 119.126692,59 Z" id="Path" fill="#000000" fill-rule="nonzero"></path>
            <path d="M14,62.5 C14,60.5668896 12.7136693,59 11.1266915,59 L2.87330849,59 C1.28633065,59 0,60.5668896 0,62.5 C0,64.4331104 1.28633065,66 2.87330849,66 L11.1266915,66 C12.7136693,66 14,64.4331104 14,62.5 Z" id="Path" fill="#000000" fill-rule="nonzero"></path>
            <path d="M104.128508,18.8725333 C102.965095,17.7091556 101.082017,17.7091556 99.918605,18.8725333 L93.8725592,24.9184 C92.7091469,26.0817778 92.7091469,27.9662222 93.8725592,29.1281778 C94.4542653,29.7098667 95.2151767,30 95.9775104,30 C96.7398441,30 97.5007556,29.7098667 98.0824617,29.1281778 L104.128508,23.0823111 C105.290497,21.9189333 105.290497,20.0344889 104.128508,18.8725333 Z" id="Path" fill="#000000" fill-rule="nonzero"></path>
            <path d="M18.8714925,104.128178 C19.4531986,104.709867 20.21411,105 20.9764437,105 C21.7387774,105 22.4996889,104.709867 23.081395,104.128178 L29.1274408,98.0823111 C30.2908531,96.9203556 30.2908531,95.0344889 29.1274408,93.8725333 C27.9640286,92.7091556 26.0809505,92.7091556 24.9175383,93.8725333 L18.8714925,99.9184 C17.7095025,101.081778 17.7095025,102.966222 18.8714925,104.128178 Z" id="Path" fill="#000000" fill-rule="nonzero"></path>
            <path d="M99.91799,104.128178 C100.499644,104.709867 101.260488,105 102.022754,105 C102.78502,105 103.545864,104.709867 104.127518,104.128178 C105.290827,102.966222 105.290827,101.080356 104.127518,99.9184 L98.08201,93.8725333 C96.9187011,92.7091556 95.0357905,92.7091556 93.8724816,93.8725333 C92.7091728,95.0344889 92.7091728,96.9203556 93.8724816,98.0823111 L99.91799,104.128178 Z" id="Path" fill="#000000" fill-rule="nonzero"></path>
            <path d="M24.91799,29.1281778 C25.4996445,29.7098667 26.2604883,30 27.0227542,30 C27.7850201,30 28.5458639,29.7098667 29.1275184,29.1281778 C30.2908272,27.9662222 30.2908272,26.0817778 29.1275184,24.9184 L23.08201,18.8725333 C21.9187011,17.7091556 20.0357905,17.7091556 18.8724816,18.8725333 C17.7091728,20.0344889 17.7091728,21.9189333 18.8724816,23.0823111 L24.91799,29.1281778 Z" id="Path" fill="#000000" fill-rule="nonzero"></path>
        </g>
    </g>
</svg>