<?xml version="1.0" encoding="UTF-8"?>
<svg width="140px" height="140px" viewBox="0 0 140 140" version="1.1" xmlns="http://www.w3.org/2000/svg" xmlns:xlink="http://www.w3.org/1999/xlink">
    <title>moon</title>
    <g id="moon" stroke="none" stroke-width="1" fill="none" fill-rule="evenodd">
        <path d="M70.9421589,103 C52.2537678,103 37,87.8115939 37,69.2032818 C37,54.6183885 46.3947047,41.6428628 60.3352342,37.1165166 C61.1433809,36.8147601 62.0525458,37.1165166 62.5576375,37.8206149 C63.0627291,38.5247132 63.0627291,39.4299824 62.5576375,40.1340807 C59.0219959,45.1633542 57.203666,50.9973115 57.203666,57.1330253 C57.203666,73.528457 70.6391039,86.9063247 87.1050916,86.9063247 C90.2366599,86.9063247 93.3682281,86.4033973 96.398778,85.3975426 C97.2069246,85.0957862 98.1160896,85.3975426 98.6211813,86.1016409 C99.1262729,86.8057392 99.1262729,87.7110084 98.6211813,88.4151067 C92.3580448,97.5683846 81.9531568,103 70.9421589,103 Z M56,43 C46.8,48.2658228 41,58.0886076 41,69.0253165 C41,85.5316456 54.3,99 70.6,99 C78.3,99 85.6,95.9620253 91,90.6962025 C89.5,90.8987342 88.1,91 86.6,91 C68.1,91 53,75.7088608 53,56.9746835 C53.1,52.1139241 54.1,47.3544304 56,43 Z" id="Shape" fill="#000000" fill-rule="nonzero"></path>
    </g>
</svg>